HIERARCHY
ROOT Bip001_Pelvis
{
  OFFSET 32.8085 95.8515 -28.6975
  CHANNELS 6 Xposition Yposition Zposition Zrotation Xrotation Yrotation
  JOINT Bip001_Spine
  {
    OFFSET 1.4188e-005 10.2191 -0.0116013
    CHANNELS 6 Xposition Yposition Zposition Zrotation Xrotation Yrotation
    JOINT Bip001_L_Thigh
    {
      OFFSET 11.0457 -10.2191 0.0116197
      CHANNELS 6 Xposition Yposition Zposition Zrotation Xrotation Yrotation
      JOINT Bip001_L_Calf
      {
        OFFSET -0.707118 -44.0221 0.360014
        CHANNELS 6 Xposition Yposition Zposition Zrotation Xrotation Yrotation
        JOINT Bip001_L_Foot
        {
          OFFSET -0.651901 -40.5938 -3.56146
          CHANNELS 6 Xposition Yposition Zposition Zrotation Xrotation Yrotation
          JOINT Bip001_L_Toe0
          {
            OFFSET 0.0530839 -10.2181 13.1504
            CHANNELS 6 Xposition Yposition Zposition Zrotation Xrotation Yrotation
            End Site
            {
              OFFSET -1.02532e-005 0 7.55606
            }
          }
        }
      }
    }
    JOINT Bip001_R_Thigh
    {
      OFFSET -11.0458 -10.2191 0.0115893
      CHANNELS 6 Xposition Yposition Zposition Zrotation Xrotation Yrotation
      JOINT Bip001_R_Calf
      {
        OFFSET 0.706994 -44.0221 0.35984
        CHANNELS 6 Xposition Yposition Zposition Zrotation Xrotation Yrotation
        JOINT Bip001_R_Foot
        {
          OFFSET 0.651786 -40.5938 -3.5613
          CHANNELS 6 Xposition Yposition Zposition Zrotation Xrotation Yrotation
          JOINT Bip001_R_Toe0
          {
            OFFSET -0.0531479 -10.2181 13.1504
            CHANNELS 6 Xposition Yposition Zposition Zrotation Xrotation Yrotation
            End Site
            {
              OFFSET -1.02894e-005 0 7.55606
            }
          }
        }
      }
    }
    JOINT Bip001_Spine1
    {
      OFFSET 1.87041e-005 14.5736 1.08638
      CHANNELS 6 Xposition Yposition Zposition Zrotation Xrotation Yrotation
      JOINT Bip001_Spine2
      {
        OFFSET 2.24614e-005 14.5058 -1.69078
        CHANNELS 6 Xposition Yposition Zposition Zrotation Xrotation Yrotation
        JOINT Bip001_Neck
        {
          OFFSET 2.20278e-005 15.3945 -0.489414
          CHANNELS 6 Xposition Yposition Zposition Zrotation Xrotation Yrotation
          JOINT Bip001_L_Clavicle
          {
            OFFSET 6.06036 -0.000579998 0.00836775
            CHANNELS 6 Xposition Yposition Zposition Zrotation Xrotation Yrotation
            JOINT Bip001_L_UpperArm
            {
              OFFSET 11.5509 -0.0600302 0.00193952
              CHANNELS 6 Xposition Yposition Zposition Zrotation Xrotation Yrotation
              JOINT Bip001_L_Forearm
              {
                OFFSET 25.9523 0.0806089 -2.15551
                CHANNELS 6 Xposition Yposition Zposition Zrotation Xrotation Yrotation
                JOINT Bip001_L_Hand
                {
                  OFFSET 32.2476 0.153767 1.63968
                  CHANNELS 6 Xposition Yposition Zposition Zrotation Xrotation Yrotation
                  JOINT Bip001_L_Finger0
                  {
                    OFFSET 6.04639 -2.20976 5.90322
                    CHANNELS 6 Xposition Yposition Zposition Zrotation Xrotation Yrotation
                    End Site
                    {
                      OFFSET 4.22376 -1.43895 0.606486
                    }
                  }
                  JOINT Bip001_L_Finger1
                  {
                    OFFSET 11.0826 -0.704819 -0.198153
                    CHANNELS 6 Xposition Yposition Zposition Zrotation Xrotation Yrotation
                    End Site
                    {
                      OFFSET 6.20028 -0.397518 -0.0787166
                    }
                  }
                }
              }
            }
          }
          JOINT Bip001_R_Clavicle
          {
            OFFSET -6.06036 -0.000563197 0.00835105
            CHANNELS 6 Xposition Yposition Zposition Zrotation Xrotation Yrotation
            JOINT Bip001_R_UpperArm
            {
              OFFSET -11.5509 -0.0599978 0.00190698
              CHANNELS 6 Xposition Yposition Zposition Zrotation Xrotation Yrotation
              JOINT Bip001_R_Forearm
              {
                OFFSET -25.9523 0.080682 -2.1559
                CHANNELS 6 Xposition Yposition Zposition Zrotation Xrotation Yrotation
                JOINT Bip001_R_Hand
                {
                  OFFSET -32.2476 0.153858 1.6399
                  CHANNELS 6 Xposition Yposition Zposition Zrotation Xrotation Yrotation
                  JOINT Bip001_R_Finger0
                  {
                    OFFSET -6.04641 -2.20975 5.9032
                    CHANNELS 6 Xposition Yposition Zposition Zrotation Xrotation Yrotation
                    End Site
                    {
                      OFFSET -4.22376 -1.43894 0.606473
                    }
                  }
                  JOINT Bip001_R_Finger1
                  {
                    OFFSET -11.0826 -0.70479 -0.198183
                    CHANNELS 6 Xposition Yposition Zposition Zrotation Xrotation Yrotation
                    End Site
                    {
                      OFFSET -6.20028 -0.397501 -0.0787338
                    }
                  }
                }
              }
            }
          }
          JOINT Bip001_Head
          {
            OFFSET 1.09673e-005 11.2744 2.05948
            CHANNELS 6 Xposition Yposition Zposition Zrotation Xrotation Yrotation
            End Site
            {
              OFFSET 2.89576e-005 20.8808 -2.77728e-005
            }
          }
        }
      }
    }
  }
}
MOTION
Frames:	4
Frame Time:	0.04
32.4884 95.8517 -28.0773 0.173585 -0.416112 2.62064 1.4188e-005 10.2191 -0.0116013 -0.200465 2.6405 -0.0575345 11.0458 -10.2192 0.0116197 5.7202 -3.7949 6.55354 -0.707118 -44.0221 0.360014 -0.885262 8.10642 -12.3773 -0.651902 -40.5938 -3.56146 3.95312 -3.19112 -0.0783997 0.0530839 -10.2181 13.1504 -3.3621 -3.93115 5.25001 -11.0458 -10.2191 0.0115893 -2.58675 -2.91353 -5.17075 0.706994 -44.0221 0.35984 -0.68468 10.1465 0.651665 0.651786 -40.5938 -3.5613 -5.15512 -10.1195 4.02215 -0.0531479 -10.2181 13.1504 2.15256 -7.31619 2.22523 1.87041e-005 14.5736 1.08638 -0.400074 5.28118 -0.106187 2.24614e-005 14.5058 -1.69078 -0.399497 5.28118 -0.106034 2.20278e-005 15.3945 -0.489414 -0.631486 -5.72943 -6.06283 6.06036 -0.000579998 0.00836775 -24.4256 5.58351 2.15862 11.5509 -0.0600302 0.00193952 -48.1601 38.9253 -2.99615 25.9523 0.0806089 -2.15551 11.3642 1.87508 -25.8124 32.2476 0.153767 1.63968 8.46139 0.955407 -2.06926 6.04639 -2.20976 5.90322 -6.36111e-015 0 -1.59028e-015 11.0826 -0.704819 -0.198153 -6.36111e-015 -3.18056e-015 -1.59028e-015 -6.06037 -0.000563197 0.00835105 24.9651 14.6546 21.2484 -11.5509 -0.0599978 0.00190698 53.8007 -10.1144 22.2742 -25.9523 0.0806818 -2.1559 -35.0571 -7.63366 100.215 -32.2478 0.153858 1.63989 -59.0524 13.7943 11.0206 -6.0464 -2.20977 5.90315 3.18055e-015 -6.36111e-015 1.59028e-015 -11.0826 -0.704796 -0.198182 3.18055e-015 -3.18056e-015 -0 1.09673e-005 11.2744 2.05948 -0.20326 17.2483 -5.77013 
32.4414 95.8599 -28.1431 0.055676 -0.323915 2.91985 1.4188e-005 10.2191 -0.0116013 -0.171278 2.63195 -0.0184048 11.0458 -10.2192 0.0116197 5.83737 -4.06134 6.30604 -0.707118 -44.0221 0.360014 -0.931429 8.21857 -12.5513 -0.651902 -40.5938 -3.56146 4.28746 -2.90265 -0.0976958 0.0530839 -10.2181 13.1504 -3.2804 -4.15384 5.17614 -11.0458 -10.2191 0.0115893 -2.41088 -2.94123 -5.24128 0.706994 -44.0221 0.35984 -0.752624 10.0079 0.575869 0.651786 -40.5938 -3.5613 -5.16521 -9.95943 3.87835 -0.0531479 -10.2181 13.1504 2.14918 -7.30715 2.2272 1.87041e-005 14.5736 1.08638 -0.343731 5.26395 -0.0294349 2.24614e-005 14.5058 -1.69078 -0.34301 5.26397 -0.0291356 2.20278e-005 15.3945 -0.489414 -0.751545 -6.17596 -6.17915 6.06036 -0.000579998 0.00836775 -24.3839 5.95048 2.46306 11.5509 -0.0600302 0.00193952 -48.055 39.1212 -3.30181 25.9523 0.0806089 -2.15551 11.3617 1.71995 -25.7407 32.2476 0.153767 1.63968 8.41614 0.955027 -2.05997 6.04639 -2.20976 5.90322 3.18055e-015 0 -0 11.0826 -0.704819 -0.198153 1.76556e-031 3.18056e-015 -3.18055e-015 -6.06037 -0.000563197 0.00835105 23.316 15.2431 23.2586 -11.5509 -0.0599978 0.00190698 54.5659 -8.43607 27.3973 -25.9523 0.0806818 -2.1559 -36.6656 -6.94883 99.5391 -32.2478 0.153858 1.63989 -62.184 14.3752 10.8539 -6.0464 -2.20977 5.90315 1.32417e-031 3.18055e-015 -2.38542e-015 -11.0826 -0.704797 -0.198182 1.59028e-015 6.36111e-015 -1.59028e-015 1.09673e-005 11.2744 2.05948 -0.0386121 17.6334 -5.95123 
32.4709 95.8608 -28.1013 0.354951 -0.570588 2.93953 1.4188e-005 10.2191 -0.0116013 -0.232096 2.69304 0.0934294 11.0458 -10.2192 0.0116197 5.50935 -3.60711 6.71303 -0.707118 -44.0221 0.360014 -0.77926 7.7182 -13.1732 -0.651902 -40.5938 -3.56146 4.28257 -2.60164 -0.111259 0.0530839 -10.2181 13.1504 -3.26099 -4.22508 5.12036 -11.0458 -10.2191 0.0115893 -2.68846 -2.86007 -5.52778 0.706994 -44.0221 0.35984 -0.772488 10.353 0.541227 0.651786 -40.5938 -3.5613 -5.11257 -10.2129 4.04899 -0.0531479 -10.2181 13.1504 2.14808 -7.30057 2.22922 1.87041e-005 14.5736 1.08638 -0.469383 5.38566 0.198119 2.24614e-005 14.5058 -1.69078 -0.469384 5.38567 0.19812 2.20278e-005 15.3945 -0.489414 -0.875217 -6.56777 -6.35744 6.06036 -0.000579998 0.00836775 -24.3274 6.25914 2.74873 11.5509 -0.0600302 0.00193952 -47.9702 39.0781 -3.42353 25.9523 0.0806089 -2.15551 11.3507 1.6483 -25.9423 32.2476 0.153767 1.63968 8.68025 0.92635 -2.01908 6.04639 -2.20976 5.90322 9.54166e-015 0 1.59028e-015 11.0826 -0.704819 -0.198153 1.27222e-014 -3.18056e-015 1.59028e-015 -6.06037 -0.000563197 0.00835105 21.4954 15.6549 25.2361 -11.5509 -0.0599978 0.00190698 55.0818 -6.24261 32.4875 -25.9523 0.0806818 -2.1559 -37.9623 -4.94181 96.0297 -32.2478 0.153858 1.63989 -63.5347 13.0046 11.7473 -6.0464 -2.20977 5.90314 -3.18055e-015 9.54166e-015 3.18055e-015 -11.0826 -0.704797 -0.198181 -1.59028e-015 1.27222e-014 -0 1.09673e-005 11.2744 2.05948 0.138711 18.0358 -6.19937 
32.3561 95.8546 -28.1332 0.158846 -0.471487 3.29505 1.4188e-005 10.2191 -0.0116013 -0.191569 2.66174 0.0949301 11.0458 -10.2192 0.0116197 5.7819 -3.89696 7.01107 -0.707118 -44.0221 0.360014 -0.861147 7.95672 -13.9436 -0.651902 -40.5938 -3.56146 4.93739 -2.22809 -0.147022 0.0530839 -10.2181 13.1504 -3.08109 -4.64411 4.95348 -11.0458 -10.2191 0.0115893 -2.37949 -2.79668 -5.62566 0.706994 -44.0221 0.35984 -0.876051 10.1115 0.369987 0.651786 -40.5938 -3.5613 -5.11638 -10.0999 3.97517 -0.0531479 -10.2181 13.1504 2.14733 -7.28925 2.23153 1.87041e-005 14.5736 1.08638 -0.388005 5.32314 0.197801 2.24614e-005 14.5058 -1.69078 -0.388152 5.32315 0.198459 2.20278e-005 15.3945 -0.489414 -1.11313 -6.70635 -6.46822 6.06036 -0.000579998 0.00836775 -24.1781 6.31037 3.09637 11.5509 -0.0600302 0.00193952 -48.8057 39.7207 -2.86328 25.9523 0.0806089 -2.15551 12.3767 0.499794 -25.9295 32.2476 0.153767 1.63968 8.53151 1.1908 -2.12068 6.04639 -2.20976 5.90322 3.18055e-015 0 1.59028e-015 11.0826 -0.704819 -0.198153 3.18055e-015 -3.18056e-015 1.59028e-015 -6.06037 -0.000563197 0.00835105 20.1149 15.8524 27.202 -11.5509 -0.0599978 0.00190698 52.0672 -1.49036 35.4698 -25.9523 0.0806818 -2.1559 -39.9834 -5.69894 88.4203 -32.2478 0.153858 1.63989 -62.9189 10.8765 12.765 -6.04641 -2.20977 5.90314 -3.18055e-015 -1.27222e-014 -1.59028e-015 -11.0826 -0.704797 -0.198181 -3.18055e-015 -1.27222e-014 -3.18055e-015 1.09673e-005 11.2744 2.05948 0.396546 18.3343 -6.44724 
